<svg xmlns="http://www.w3.org/2000/svg" xmlns:vectornator="http://vectornator.io" xmlns:xlink="http://www.w3.org/1999/xlink" stroke-miterlimit="10" style="fill-rule:nonzero;clip-rule:evenodd;stroke-linecap:round;stroke-linejoin:round;" version="1.1" xml:space="preserve" viewBox="206.55 84.97 379.45 91.93">
<defs>
<linearGradient gradientTransform="matrix(1 0 0 1 0 0)" gradientUnits="userSpaceOnUse" id="LinearGradient" x1="215.979" x2="309" y1="130.621" y2="130.621">
<stop offset="0" stop-color="#6464e8"/>
<stop offset="1" stop-color="#00adec"/>
</linearGradient>
<linearGradient gradientTransform="matrix(1 0 0 1 0 0)" gradientUnits="userSpaceOnUse" id="LinearGradient_2" x1="206.55" x2="242.2" y1="157.869" y2="157.869">
<stop offset="0" stop-color="#6464e8"/>
<stop offset="1" stop-color="#00adec"/>
</linearGradient>
<linearGradient gradientTransform="matrix(1 0 0 1 0 0)" gradientUnits="userSpaceOnUse" id="LinearGradient_3" x1="317.8" x2="586" y1="131.45" y2="131.45">
<stop offset="0.258264" stop-color="#6464e8"/>
<stop offset="1" stop-color="#00adec"/>
</linearGradient>
</defs>
<g id="layer" vectornator:layerName="layer">
<g opacity="1">
<path d="M216.5 136.9C211.4 102.8 244.6 76.7 278 87.4C300.5 94.6 312.2 113.5 299.6 118.4C310 128.3 301.1 141.2 297.8 135.4C297.8 135.4 300.5 142.8 292.5 150.5C286.6 156.3 278.8 155.5 279.9 152.4C281.9 146.9 279 141.2 274.5 138.8L274.5 138.8C271.8 137.3 268.6 137.1 265.5 138.9L265.5 138.9C256.5 145.7 261.5 174.3 309 164.3C261.9 191.7 221.1 167.6 216.5 136.9Z" fill="url(#LinearGradient)" fill-rule="evenodd" opacity="1" stroke="none"/>
<path d="M239.1 176.5C238.1 176.4 237.1 176.2 235.9 175.9C234.7 175.6 233.4 175.3 232 174.8C230.7 174.4 229.3 173.8 227.9 173.3C226.6 172.7 225.3 172 224 171.2C222.8 170.4 221.5 169.7 220.3 168.7C219.2 167.9 218.1 166.9 217.1 165.9C216.2 164.9 215.2 163.9 214.4 162.8C213.6 161.8 212.9 160.7 212.2 159.7C211.6 158.7 211 157.7 210.5 156.8C210 155.8 209.6 154.9 209.2 154.1C208.5 152.4 208 151.1 207.6 150.1C207.3 149.2 207.1 148.7 207.1 148.7C206.1 146 206.5 142.3 208 140.3C209.7 138 212.3 138.4 213.5 141.6L213.6 141.7C213.6 141.7 213.8 142.2 214.2 143.2C214.6 144.1 215.1 145.5 215.8 147C216.2 147.8 216.5 148.6 217 149.5C217.4 150.4 217.9 151.2 218.4 152.2C218.9 153.1 219.4 154.1 220 155C220.6 156 221.3 156.9 222 157.9C222.8 158.8 223.5 159.9 224.4 160.8C225.2 161.9 226.2 162.8 227.2 163.8C228.2 164.8 229.2 165.8 230.3 166.8C231.4 167.7 232.5 168.8 233.5 169.7C234.6 170.6 235.7 171.5 236.7 172.4C237.7 173.2 238.7 174 239.5 174.7C241.2 176 242.2 176.9 242.2 176.9C242.2 176.9 241 176.8 239.1 176.5Z" fill="url(#LinearGradient_2)" fill-rule="evenodd" opacity="1" stroke="none"/>
<path d="M317.8 151L317.8 112L333.5 112C337.367 112 340.267 112.933 342.2 114.8C344.2 116.667 345.2 119.233 345.2 122.5C345.2 123.833 344.933 125.1 344.4 126.3C343.867 127.5 343.067 128.5 342 129.3C340.867 130.167 339.5 130.733 337.9 131C339.5 131.2 340.9 131.767 342.1 132.7C343.233 133.567 344.1 134.667 344.7 136C345.367 137.333 345.7 138.767 345.7 140.3L345.7 140.4C345.7 142.467 345.2 144.333 344.2 146C343.267 147.6 341.933 148.833 340.2 149.7C338.4 150.567 336.333 151 334 151L317.8 151ZM322.2 133L322.2 146.9L332 146.9C335.2 146.9 337.533 146.333 339 145.2C340.467 144 341.2 142.333 341.2 140.2L341.2 140.1C341.2 137.833 340.567 136.067 339.3 134.8C338.033 133.6 336.067 133 333.4 133L322.2 133ZM322.2 116L322.2 129L333.3 129C335.767 129 337.6 128.467 338.8 127.4C340.067 126.333 340.7 124.733 340.7 122.6C340.7 118.2 337.967 116 332.5 116L322.2 116ZM349.3 151L364 112L368.7 112L383.3 151L378.5 151L375.2 141.8L357.5 141.8L354.1 151L349.3 151ZM358.9 137.7L373.8 137.7L366.3 117.1L358.9 137.7ZM386.3 136.8L386.3 126.1C386.3 123.167 386.867 120.6 388 118.4C389.2 116.2 390.833 114.5 392.9 113.3C394.967 112.1 397.4 111.5 400.2 111.5C402.467 111.5 404.6 111.967 406.6 112.9C408.6 113.833 410.2 115.167 411.4 116.9C412.6 118.567 413.2 120.5 413.2 122.7L408.8 122.7C408.8 121.367 408.4 120.167 407.6 119.1C406.733 117.967 405.633 117.1 404.3 116.5C402.9 115.9 401.533 115.6 400.2 115.6C398.333 115.6 396.667 116.033 395.2 116.9C393.8 117.767 392.7 119 391.9 120.6C391.1 122.2 390.7 124.033 390.7 126.1L390.7 136.8C390.7 138.867 391.1 140.7 391.9 142.3C392.7 143.833 393.8 145.033 395.2 145.9C396.667 146.767 398.333 147.2 400.2 147.2C401.6 147.2 402.967 146.933 404.3 146.4C405.633 145.8 406.7 144.967 407.5 143.9C408.367 142.833 408.8 141.567 408.8 140.1L413.2 140.1C413.2 142.3 412.6 144.267 411.4 146C410.2 147.667 408.6 149 406.6 150C404.6 150.933 402.467 151.4 400.2 151.4C397.4 151.4 394.967 150.8 392.9 149.6C390.833 148.333 389.2 146.6 388 144.4C386.867 142.2 386.3 139.667 386.3 136.8ZM425.5 150.9L421.1 150.9L421.1 111.9L425.5 111.9L425.5 135.3L444.4 111.9L449.9 111.9L437.2 127.2L451.6 150.9L446.3 150.9L434.1 130.8L425.5 141L425.5 150.9ZM457.5 150.9L457.5 111.8L473.3 111.8C475.567 111.8 477.567 112.267 479.3 113.2C481.1 114.133 482.467 115.467 483.4 117.2C484.333 118.933 484.8 120.9 484.8 123.1C484.8 125.767 484.133 128.033 482.8 129.9C481.467 131.833 479.633 133.133 477.3 133.8L486.5 150.9L481.3 150.9L472.8 134.4L461.9 134.4L461.9 150.9L457.5 150.9ZM461.9 115.9L461.9 130.3L473.5 130.3C474.9 130.3 476.1 130 477.1 129.4C478.167 128.8 478.967 127.933 479.5 126.8C480.1 125.733 480.4 124.5 480.4 123.1C480.4 121.633 480.1 120.367 479.5 119.3C478.9 118.233 478.1 117.4 477.1 116.8C476.033 116.2 474.833 115.9 473.5 115.9L461.9 115.9ZM492 136.9L492 125.9C492 122.9 492.567 120.3 493.7 118.1C494.833 115.967 496.433 114.333 498.5 113.2C500.633 112.067 503.133 111.5 506 111.5C508.933 111.5 511.433 112.067 513.5 113.2C515.633 114.333 517.233 115.967 518.3 118.1C519.433 120.3 520 122.9 520 125.9L520 136.9C520 139.9 519.433 142.5 518.3 144.7C517.233 146.833 515.633 148.467 513.5 149.6C511.433 150.733 508.933 151.3 506 151.3C503.133 151.3 500.633 150.733 498.5 149.6C496.433 148.467 494.833 146.833 493.7 144.7C492.567 142.5 492 139.9 492 136.9ZM496.5 125.7L496.5 137.1C496.5 139.233 496.867 141.033 497.6 142.5C498.333 144.033 499.433 145.2 500.9 146C502.3 146.8 504 147.2 506 147.2C508 147.2 509.7 146.8 511.1 146C512.567 145.2 513.667 144.033 514.4 142.5C515.2 141.033 515.6 139.233 515.6 137.1L515.6 125.7C515.6 123.567 515.2 121.767 514.4 120.3C513.667 118.767 512.567 117.6 511.1 116.8C509.7 116 508 115.6 506 115.6C504 115.6 502.3 116 500.9 116.8C499.433 117.6 498.333 118.767 497.6 120.3C496.867 121.767 496.5 123.567 496.5 125.7ZM528.3 111.9L532.7 111.9L532.7 146.8L554 146.8L554 150.9L528.3 150.9L528.3 111.9ZM560.4 111.9L564.8 111.9L564.8 146.9L586 146.9L586 151L560.4 151L560.4 111.9Z" fill="url(#LinearGradient_3)" fill-rule="evenodd" opacity="1" stroke="none"/>
</g>
</g>
</svg>