<svg xmlns="http://www.w3.org/2000/svg" version="1.2" viewBox="0.55 0.97 102.45 91.93">
	<title>logo2-deg-backroll-cropped-svg</title>
	<defs>
		<linearGradient id="g1" x1="10" y1="46.6" x2="103" y2="46.6" gradientUnits="userSpaceOnUse">
			<stop offset="0" stop-color="#6464e8"/>
			<stop offset="1" stop-color="#00adec"/>
		</linearGradient>
		<linearGradient id="g2" x1=".6" y1="73.9" x2="36.2" y2="73.9" gradientUnits="userSpaceOnUse">
			<stop offset="0" stop-color="#6464e8"/>
			<stop offset="1" stop-color="#00adec"/>
		</linearGradient>
	</defs>
	<style>
		.s0 { fill: url(#g1) } 
		.s1 { fill: url(#g2) } 
	</style>
	<g id="layer">
		<g id="Layer">
			<path id="Layer" fill-rule="evenodd" class="s0" d="m10.5 52.9c-5.1-34.1 28.1-60.2 61.5-49.5 22.5 7.2 34.2 26.1 21.6 31 10.4 9.9 1.5 22.8-1.8 17 0 0 2.7 7.4-5.3 15.1-5.9 5.8-13.7 5-12.6 1.9 2-5.5-0.9-11.2-5.4-13.6-2.7-1.5-5.9-1.7-9 0.1-9 6.8-4 35.4 43.5 25.4-47.1 27.4-87.9 3.3-92.5-27.4z"/>
			<path id="Layer" fill-rule="evenodd" class="s1" d="m33.1 92.5c-1-0.1-2-0.3-3.2-0.6-1.2-0.3-2.5-0.6-3.9-1.1-1.3-0.4-2.7-1-4.1-1.5q-1.9-0.9-3.9-2.1c-1.2-0.8-2.5-1.5-3.7-2.5-1.1-0.8-2.2-1.8-3.2-2.8-0.9-1-1.9-2-2.7-3.1-0.8-1-1.5-2.1-2.2-3.1-0.6-1-1.2-2-1.7-2.9-0.5-1-0.9-1.9-1.3-2.7-0.7-1.7-1.2-3-1.6-4-0.3-0.9-0.5-1.4-0.5-1.4-1-2.7-0.6-6.4 0.9-8.4 1.7-2.3 4.3-1.9 5.5 1.3l0.1 0.1q0 0 0.6 1.5c0.4 0.9 0.9 2.3 1.6 3.8 0.4 0.8 0.7 1.6 1.2 2.5 0.4 0.9 0.9 1.7 1.4 2.7 0.5 0.9 1 1.9 1.6 2.8 0.6 1 1.3 1.9 2 2.9 0.8 0.9 1.5 2 2.4 2.9 0.8 1.1 1.8 2 2.8 3 1 1 2 2 3.1 3 1.1 0.9 2.2 2 3.2 2.9 1.1 0.9 2.2 1.8 3.2 2.7 1 0.8 2 1.6 2.8 2.3 1.7 1.3 2.7 2.2 2.7 2.2 0 0-1.2-0.1-3.1-0.4z"/>
		</g>
	</g>
</svg>