<?xml version="1.0" encoding="iso-8859-1"?>
<!-- Generator: Adobe Illustrator 19.0.0, SVG Export Plug-In . SVG Version: 6.00 Build 0)  -->
<svg version="1.1" id="Layer_1" xmlns="http://www.w3.org/2000/svg" xmlns:xlink="http://www.w3.org/1999/xlink" x="0px" y="0px"
	 viewBox="0 0 512.001 512.001" style="enable-background:new 0 0 512.001 512.001;" xml:space="preserve">
<path style="fill:#0052B4;" d="M473.034,240.049L473.034,240.049H240.291l0,0h-38.966v97.039c0,54.458,68.232,97.115,155.338,97.115
	s155.338-42.658,155.338-97.115v-97.039L473.034,240.049L473.034,240.049z"/>
<path style="fill:#003778;" d="M356.663,435.218c87.106,0,155.338-42.657,155.338-97.115v-97.039H357.189"/>
<path style="fill:#006DF0;" d="M473.034,143.01L473.034,143.01H240.291l0,0h-38.966v97.04c0,54.456,68.232,97.115,155.338,97.115
	s155.338-42.659,155.338-97.115v-97.04L473.034,143.01L473.034,143.01z"/>
<path style="fill:#0052B4;" d="M356.663,337.164c87.106,0,155.338-42.659,155.338-97.115v-97.04H357.189"/>
<path style="fill:#93C7EF;" d="M356.663,45.896c-87.106,0-155.338,42.657-155.338,97.114c0,54.458,68.232,97.115,155.338,97.115
	s155.338-42.657,155.338-97.115C512,88.554,443.768,45.896,356.663,45.896z"/>
<path style="fill:#78B9EB;" d="M356.663,240.124c87.106,0,155.338-42.657,155.338-97.115c0-54.456-68.232-97.114-155.338-97.114"/>
<path style="fill:#003778;" d="M291.192,304.763L291.192,304.763H19.483l0,0H0v97.039c0,54.456,68.232,97.114,155.338,97.114
	s155.338-42.658,155.338-97.114v-97.039H291.192z"/>
<path d="M155.338,498.469c87.106,0,155.338-42.659,155.338-97.115v-97.04H155.864"/>
<path style="fill:#0052B4;" d="M271.709,207.239L271.709,207.239H38.966l0,0H0v97.039c0,54.456,68.232,97.115,155.338,97.115
	s155.338-42.657,155.338-97.115v-97.039L271.709,207.239L271.709,207.239z"/>
<path style="fill:#003778;" d="M155.338,402.407c87.106,0,155.338-42.657,155.338-97.115v-97.039H155.864"/>
<path style="fill:#006DF0;" d="M271.709,110.199L271.709,110.199l-232.743,0.001l0,0H0v97.039
	c0,54.456,68.232,97.115,155.338,97.115s155.338-42.657,155.338-97.115v-97.039h-38.967V110.199z"/>
<path style="fill:#0052B4;" d="M155.338,304.353c87.106,0,155.338-42.657,155.338-97.115v-97.039H155.864"/>
<path style="fill:#93C7EF;" d="M155.338,13.085C68.232,13.085,0,55.744,0,110.199c0,54.456,68.232,97.115,155.338,97.115
	s155.338-42.657,155.338-97.115C310.675,55.744,242.443,13.085,155.338,13.085z"/>
<path style="fill:#78B9EB;" d="M155.338,207.314c87.106,0,155.338-42.657,155.338-97.115c0-54.456-68.232-97.114-155.338-97.114"/>
<g>
</g>
<g>
</g>
<g>
</g>
<g>
</g>
<g>
</g>
<g>
</g>
<g>
</g>
<g>
</g>
<g>
</g>
<g>
</g>
<g>
</g>
<g>
</g>
<g>
</g>
<g>
</g>
<g>
</g>
</svg>
